<?xml version="1.0" encoding="UTF-8" standalone="no"?><!DOCTYPE svg PUBLIC "-//W3C//DTD SVG 1.1//EN" "http://www.w3.org/Graphics/SVG/1.1/DTD/svg11.dtd"><svg width="100%" height="100%" viewBox="0 0 1169 1000" version="1.1" xmlns="http://www.w3.org/2000/svg" xmlns:xlink="http://www.w3.org/1999/xlink" xml:space="preserve" xmlns:serif="http://www.serif.com/" style="fill-rule:evenodd;clip-rule:evenodd;stroke-linejoin:round;stroke-miterlimit:2;"><rect id="Artboard1" x="0" y="0" width="1168.2" height="1000" style="fill:none;"/><clipPath id="_clip1"><rect x="0" y="0" width="1168.2" height="1000"/></clipPath><g clip-path="url(#_clip1)"><path d="M343.311,989.565c18.754,-15.846 30.145,-40.878 27.157,-65.247c-2.987,-24.369 -21.489,-46.772 -45.489,-51.947c-24.001,-5.174 -51.359,9.15 -58.649,32.595c-4.012,-45.2 -8.635,-92.293 -32.666,-130.785c-21.76,-34.853 -59.448,-59.792 -100.294,-64.254c-40.845,-4.461 -83.85,12.389 -109.324,44.628c-25.474,32.239 -31.711,79.107 -13.87,116.119c13.143,27.266 37.357,47.558 62.727,64.066c81.96,52.88 180.332,74.401 276.885,60.572" style="fill:#f2f2f2;fill-rule:nonzero;"/><path d="M64.437,723.251c33.703,27.45 64.622,58.152 92.309,91.661c43.33,52.261 78.395,110.856 103.97,173.741c1.872,4.588 -5.578,6.585 -7.429,2.048c-16.264,-39.759 -36.386,-77.83 -60.076,-113.665c-36.943,-55.978 -82.204,-105.999 -134.221,-148.338c-3.846,-3.132 1.633,-8.553 5.447,-5.447l0,-0Z" style="fill:#fff;fill-rule:nonzero;"/><path d="M356.264,989.565c-18.753,-15.846 -30.144,-40.878 -27.156,-65.247c2.987,-24.369 21.489,-46.772 45.489,-51.947c24,-5.174 51.359,9.15 58.649,32.595c4.011,-45.2 8.634,-92.293 32.666,-130.785c21.759,-34.853 59.448,-59.792 100.293,-64.254c40.846,-4.461 83.851,12.389 109.325,44.628c25.474,32.239 31.711,79.107 13.87,116.119c-13.143,27.266 -37.357,47.558 -62.728,64.066c-81.959,52.88 -180.331,74.401 -276.884,60.572" style="fill:#f2f2f2;fill-rule:nonzero;"/><path d="M635.139,723.251c-33.703,27.45 -64.622,58.152 -92.309,91.661c-43.331,52.261 -78.395,110.856 -103.97,173.741c-1.872,4.588 5.578,6.585 7.429,2.048c41.843,-102.196 108.653,-192.288 194.297,-262.003c3.846,-3.132 -1.633,-8.553 -5.447,-5.447l-0,-0Z" style="fill:#fff;fill-rule:nonzero;"/><ellipse cx="411.914" cy="387.031" rx="62.817" ry="62.817" style="fill:#f2f2f2;"/><path d="M218.23,170.492l432.795,-0l0,23.678l-377.545,0c-92.73,0 -169.036,76.305 -169.036,169.034l-0,269.015l-47.357,-0c-4.33,-0 -7.893,-3.563 -7.893,-7.893l-0,-284.8c-0,-92.729 76.305,-169.034 169.036,-169.034Z" style="fill:#f2f2f2;fill-rule:nonzero;"/><path d="M301.477,990.881l-0,-359.675l105.371,-0l-0,359.675c-0.006,5.001 -4.119,9.113 -9.119,9.119l-87.134,-0c-5,-0.006 -9.113,-4.118 -9.118,-9.119Z" style="fill:#3f3d56;fill-rule:nonzero;"/><path d="M26.904,624.113l-0,-292.471c0.108,-96.297 79.317,-175.505 175.615,-175.614l446.48,0l-0,478.217l-611.964,0c-5.555,-0.006 -10.125,-4.576 -10.131,-10.132Zm618.042,-464.032l-442.427,0c-94.076,0.107 -171.456,77.486 -171.563,171.561l0,292.471c0.004,3.334 2.746,6.076 6.079,6.08l607.911,-0l0,-470.112Z" style="fill:#3f3d56;fill-rule:nonzero;"/><path d="M411.914,419.453c-20.001,-0.023 -36.452,-16.474 -36.475,-36.474l0,-261.398c-0.004,-3.334 -2.746,-6.076 -6.079,-6.079l-141.846,-0c-5.556,-0.007 -10.125,-4.577 -10.132,-10.132l0,-95.238c0.007,-5.556 4.576,-10.126 10.132,-10.132l210.742,0c5.556,0.006 10.126,4.576 10.132,10.132l0,372.847c-0.022,20 -16.473,36.451 -36.474,36.474Z" style="fill:#6b7280;fill-rule:nonzero;"/><path d="M665.21,151.976c63.23,-0.133 115.37,51.788 115.503,115.018l-0,332.947l226.953,0c18.858,-0.039 34.409,15.446 34.448,34.304l-492.407,0l-0,-367.251c0.132,-63.23 52.272,-115.151 115.503,-115.018Z" style="fill:#3f3d56;fill-rule:nonzero;"/><path d="M637.493,341.575l23.917,98.797l467.85,-113.255l-23.917,-98.797c-0.586,-2.453 -2.392,-4.44 -4.777,-5.258c-0.867,-0.305 -1.785,-0.444 -2.703,-0.407l-270.438,-140.024c-3.26,-1.665 -7.288,-0.697 -9.435,2.268l-130.336,181.75l-49.135,68.536c-0.181,0.243 -0.247,0.553 -0.181,0.848c-0.999,1.664 -1.303,3.656 -0.845,5.542Z" style="fill:#fff;fill-rule:nonzero;"/><path d="M638.338,336.033c0.047,0.259 0.195,0.49 0.412,0.64c0.256,0.176 0.574,0.238 0.878,0.173c0.245,-0.065 0.459,-0.213 0.606,-0.42l0.168,-0.234l2.559,-3.577l46.462,-64.771l130.297,-181.708c1.53,-2.119 4.408,-2.809 6.732,-1.614l268.342,138.94l2.409,1.25c0.097,0.04 0.197,0.075 0.298,0.104c0.182,-0.033 0.366,-0.05 0.55,-0.052c0.252,-0.085 0.462,-0.262 0.587,-0.496c0.081,-0.153 0.124,-0.324 0.124,-0.497c-0,-0.394 -0.219,-0.756 -0.567,-0.939l-0.332,-0.177l-270.438,-140.024c-3.26,-1.665 -7.288,-0.697 -9.435,2.268l-130.336,181.75l-49.135,68.536c-0.181,0.243 -0.246,0.553 -0.181,0.848Z" style="fill:#3f3d56;fill-rule:nonzero;"/><path d="M778.849,346.107l10.414,1.155l77.291,8.562l51.238,5.673l3.027,0.336l63.936,-49.939l2.449,-1.912l15.102,-11.794l53.726,-41.958l0.322,-2.947l19.11,-172.471c0.539,-4.911 -3.052,-9.399 -7.962,-9.952l-255.03,-28.251c-4.912,-0.536 -9.398,3.053 -9.953,7.962l-13.476,121.657l-7.475,67.448l-6.687,60.342l-3.1,28.022l-0.905,8.117c-0.533,4.914 3.061,9.4 7.973,9.95Z" style="fill:#e6e6e6;fill-rule:nonzero;"/><path d="M848.931,194.93l110.471,12.235l39.177,4.338c0.484,0.053 0.971,0.08 1.458,0.08c7.27,0 13.252,-5.982 13.252,-13.252c0,-6.72 -5.113,-12.431 -11.793,-13.171l-48.728,-5.396l-100.912,-11.189c-0.483,-0.054 -0.969,-0.081 -1.456,-0.081c-7.273,0 -13.258,5.985 -13.258,13.259c-0,6.72 5.11,12.432 11.789,13.177Z" style="fill:#fff;fill-rule:nonzero;"/><path d="M842.641,243.797c0.285,0.051 0.57,0.102 0.86,0.13l128.239,14.206l21.412,2.377c0.484,0.054 0.97,0.08 1.457,0.08c7.273,0 13.257,-5.984 13.257,-13.256c-0,-6.724 -5.116,-12.437 -11.799,-13.177l-30.96,-3.425l-101.583,-11.256l-17.095,-1.894c-0.487,-0.054 -0.978,-0.082 -1.469,-0.082c-7.269,0 -13.25,5.982 -13.25,13.251c-0,6.397 4.632,11.926 10.931,13.046l-0,-0Z" style="fill:#fff;fill-rule:nonzero;"/><path d="M828.127,287.128c2.129,3.534 5.79,5.878 9.89,6.333l52.561,5.821l93.612,10.371l0.021,-0.005l2.993,0.334l15.102,-11.794c0.093,-0.896 0.094,-1.799 0.002,-2.695c-0.654,-6.175 -5.555,-11.108 -11.726,-11.801l-13.004,-1.445l-51.585,-5.708l-37.117,-4.117l-47.945,-5.314c-0.484,-0.053 -0.97,-0.08 -1.457,-0.08c-7.27,0 -13.253,5.982 -13.253,13.252c0,2.414 0.659,4.782 1.906,6.848l0,-0Z" style="fill:#fff;fill-rule:nonzero;"/><path d="M901.954,135.197l27.486,3.044l12.141,1.348l18.339,2.03c0.484,0.053 0.97,0.08 1.457,0.08c7.273,0 13.257,-5.984 13.257,-13.257c-0,-6.724 -5.116,-12.437 -11.799,-13.176l-57.953,-6.414c-0.486,-0.054 -0.975,-0.081 -1.464,-0.081c-7.271,-0 -13.254,5.983 -13.254,13.253c0,6.72 5.111,12.43 11.79,13.173l-0,-0Z" style="fill:#fff;fill-rule:nonzero;"/><path d="M677.199,208.575l33.511,138.427l55.93,10.635l51.737,9.85l55.51,10.562l17.736,3.375c2.1,0.397 4.272,-0.129 5.957,-1.442l14.229,-11.113l9.01,-7.036l63.936,-49.939l-40.653,-167.93c-0.402,-1.67 -1.277,-3.19 -2.521,-4.375c-2.216,-2.129 -5.372,-2.984 -8.359,-2.264l-249.384,60.37c-4.804,1.166 -7.799,6.075 -6.639,10.88Z" style="fill:#6b7280;fill-rule:nonzero;"/><path d="M754.04,318.699c1.716,7.063 8.934,11.467 15.999,9.763l146.333,-35.424c7.061,-1.72 11.463,-8.934 9.763,-16c-0.037,-0.169 -0.085,-0.336 -0.143,-0.499c-1.93,-6.803 -8.983,-10.923 -15.856,-9.263l-146.333,35.423c-7.063,1.716 -11.468,8.934 -9.763,16Z" style="fill:#fff;fill-rule:nonzero;"/><path d="M766.64,357.637l51.737,9.85l109.595,-26.531c5.927,-1.434 10.136,-6.783 10.136,-12.881c-0,-7.27 -5.983,-13.253 -13.254,-13.253c-1.05,-0 -2.097,0.125 -3.118,0.372l-146.333,35.424c-3.058,0.734 -5.753,2.54 -7.594,5.089c-0.444,0.609 -0.835,1.255 -1.169,1.93Z" style="fill:#fff;fill-rule:nonzero;"/><path d="M873.887,378.049l17.736,3.375c2.1,0.397 4.272,-0.129 5.957,-1.442l14.229,-11.113l-37.922,9.18Z" style="fill:#fff;fill-rule:nonzero;"/><path d="M783.525,244.471c1.716,7.063 8.934,11.467 15.999,9.763l56.679,-13.72c7.06,-1.72 11.463,-8.935 9.763,-16c-0.442,-1.835 -1.275,-3.554 -2.442,-5.038c-3.197,-4.089 -8.512,-5.941 -13.558,-4.725l-56.678,13.721c-7.066,1.711 -11.473,8.933 -9.763,15.999l-0,0Z" style="fill:#fff;fill-rule:nonzero;"/><path d="M818.373,367.486l55.518,10.564l17.732,3.377c2.098,0.392 4.267,-0.133 5.953,-1.441l14.24,-11.116l-4.997,1.209l-10.548,8.229c-1.205,0.935 -2.754,1.31 -4.253,1.03l-13.13,-2.497l-55.518,-10.565l-4.997,1.21Zm165.833,-57.83l0.541,2.233l2.462,-1.915l-3.003,-0.318Zm-165.833,57.83l55.518,10.564l17.732,3.377c2.098,0.392 4.267,-0.133 5.953,-1.441l14.24,-11.116l-4.997,1.209l-10.548,8.229c-1.205,0.935 -2.754,1.31 -4.253,1.03l-13.13,-2.497l-55.518,-10.565l-4.997,1.21Zm-0,-0l55.518,10.564l17.732,3.377c2.098,0.392 4.267,-0.133 5.953,-1.441l14.24,-11.116l-4.997,1.209l-10.548,8.229c-1.205,0.935 -2.754,1.31 -4.253,1.03l-13.13,-2.497l-55.518,-10.565l-4.997,1.21Zm-180.88,-25.911l62.647,258.785c0.962,3.955 5.004,6.422 8.961,5.468l453.422,-109.763c3.955,-0.961 6.422,-5.003 5.468,-8.96l-62.648,-258.785c-0.586,-2.453 -2.392,-4.44 -4.777,-5.259c-0.867,-0.305 -1.785,-0.443 -2.703,-0.406c-1.071,0.031 -2.121,0.307 -3.069,0.807c-0.437,0.207 -0.85,0.464 -1.23,0.764l-37.213,29.057l-54.043,42.216l-18.105,14.142l0.003,0.015l-0.015,0.004l-66.396,51.83l-10.976,8.589l-10.548,8.229c-1.205,0.935 -2.754,1.31 -4.253,1.03l-13.13,-2.497l-55.518,-10.565l-55.568,-10.568l-121.706,-23.161c-1.037,-0.206 -2.107,-0.182 -3.135,0.068c-1.384,0.338 -2.642,1.067 -3.624,2.099c-0.376,0.405 -0.71,0.847 -0.999,1.319c-0.999,1.664 -1.303,3.656 -0.845,5.542Zm180.88,25.911l55.518,10.564l17.732,3.377c2.098,0.392 4.267,-0.133 5.953,-1.441l14.24,-11.116l-4.997,1.209l-10.548,8.229c-1.205,0.935 -2.754,1.31 -4.253,1.03l-13.13,-2.497l-55.518,-10.565l-4.997,1.21Zm-0,-0l55.518,10.564l17.732,3.377c2.098,0.392 4.267,-0.133 5.953,-1.441l14.24,-11.116l-4.997,1.209l-10.548,8.229c-1.205,0.935 -2.754,1.31 -4.253,1.03l-13.13,-2.497l-55.518,-10.565l-4.997,1.21Zm-0,-0l55.518,10.564l17.732,3.377c2.098,0.392 4.267,-0.133 5.953,-1.441l14.24,-11.116l-4.997,1.209l-10.548,8.229c-1.205,0.935 -2.754,1.31 -4.253,1.03l-13.13,-2.497l-55.518,-10.565l-4.997,1.21Z" style="fill:#fff;fill-rule:nonzero;"/><path d="M818.373,367.486l55.518,10.564l17.732,3.377c2.098,0.392 4.267,-0.133 5.953,-1.441l14.24,-11.116l-4.997,1.209l-10.548,8.229c-1.205,0.935 -2.754,1.31 -4.253,1.03l-13.13,-2.497l-55.518,-10.565l-4.997,1.21Zm165.833,-57.83l0.541,2.233l2.462,-1.915l-3.003,-0.318Zm-165.833,57.83l55.518,10.564l17.732,3.377c2.098,0.392 4.267,-0.133 5.953,-1.441l14.24,-11.116l-4.997,1.209l-10.548,8.229c-1.205,0.935 -2.754,1.31 -4.253,1.03l-13.13,-2.497l-55.518,-10.565l-4.997,1.21Zm-0,-0l55.518,10.564l17.732,3.377c2.098,0.392 4.267,-0.133 5.953,-1.441l14.24,-11.116l-4.997,1.209l-10.548,8.229c-1.205,0.935 -2.754,1.31 -4.253,1.03l-13.13,-2.497l-55.518,-10.565l-4.997,1.21Zm-177.971,-31.293l0.276,0.206c0.046,-0.075 0.126,-0.143 0.187,-0.222c1.246,-1.297 3.065,-1.882 4.833,-1.556l120.945,23.007l51.73,9.858l55.518,10.564l17.732,3.377c2.098,0.392 4.267,-0.133 5.953,-1.441l14.24,-11.116l-4.997,1.209l-10.548,8.229c-1.205,0.935 -2.754,1.31 -4.253,1.03l-13.13,-2.497l-55.518,-10.565l-55.568,-10.568l-121.706,-23.161c-1.037,-0.206 -2.107,-0.182 -3.135,0.068l-2.559,3.578Zm-2.909,5.383l62.647,258.784c0.962,3.955 5.004,6.422 8.961,5.468l453.422,-109.763c3.955,-0.961 6.422,-5.003 5.468,-8.96l-62.648,-258.785c-0.586,-2.453 -2.392,-4.44 -4.777,-5.258c-0.867,-0.305 -1.785,-0.444 -2.703,-0.407c-1.071,0.031 -2.121,0.307 -3.069,0.807c-0.437,0.207 -0.85,0.464 -1.23,0.764l-37.213,29.057l-54.043,42.216l-18.105,14.142l0.003,0.015l-0.015,0.004l-66.396,51.83l-10.976,8.589l-10.548,8.229c-1.205,0.935 -2.754,1.31 -4.253,1.03l-13.13,-2.497l-55.518,-10.565l-55.568,-10.568l-121.706,-23.161c-1.037,-0.206 -2.107,-0.182 -3.135,0.068c-1.384,0.338 -2.642,1.067 -3.624,2.099c-0.376,0.405 -0.71,0.847 -0.999,1.319c-0.999,1.664 -1.303,3.656 -0.845,5.542l-0,0.001Zm2.066,-0.501c-0.374,-1.544 -0.03,-3.177 0.935,-4.438c0.043,-0.092 0.106,-0.173 0.184,-0.238c0.046,-0.075 0.126,-0.143 0.187,-0.222c1.246,-1.297 3.065,-1.882 4.833,-1.556l120.945,23.007l51.73,9.858l55.518,10.564l17.732,3.377c2.098,0.392 4.267,-0.133 5.953,-1.441l14.24,-11.116l9.005,-7.036l63.926,-49.945l2.462,-1.915l15.09,-11.788l53.735,-41.964l38.848,-30.338c0.591,-0.46 1.273,-0.79 2.001,-0.966c0.203,-0.05 0.41,-0.084 0.618,-0.102c0.182,-0.033 0.366,-0.05 0.55,-0.052c0.621,-0.006 1.238,0.094 1.825,0.297c1.7,0.592 2.988,2.008 3.417,3.755l62.647,258.785c0.1,0.41 0.15,0.831 0.15,1.254c0,2.444 -1.688,4.587 -4.064,5.16l-453.421,109.762c-2.83,0.681 -5.718,-1.088 -6.399,-3.917l-62.647,-258.785Zm178.814,26.411l55.518,10.565l17.732,3.376c2.098,0.392 4.267,-0.133 5.953,-1.441l14.24,-11.116l-4.997,1.21l-10.548,8.228c-1.205,0.935 -2.754,1.31 -4.253,1.03l-13.13,-2.497l-55.518,-10.565l-4.997,1.21Zm-0,0l55.518,10.565l17.732,3.376c2.098,0.392 4.267,-0.133 5.953,-1.441l14.24,-11.116l-4.997,1.21l-10.548,8.228c-1.205,0.935 -2.754,1.31 -4.253,1.03l-13.13,-2.497l-55.518,-10.565l-4.997,1.21Zm-0,0l55.518,10.565l17.732,3.376c2.098,0.392 4.267,-0.133 5.953,-1.441l14.24,-11.116l-4.997,1.21l-10.548,8.228c-1.205,0.935 -2.754,1.31 -4.253,1.03l-13.13,-2.497l-55.518,-10.565l-4.997,1.21Z" style="fill:#3f3d56;fill-rule:nonzero;"/><path d="M1044.35,445.223c-2.112,-8.771 3.354,-17.728 12.12,-19.861l57.227,-13.854c1.25,-0.297 2.53,-0.448 3.815,-0.448c9.025,0 16.452,7.427 16.452,16.452c0,7.548 -5.195,14.175 -12.525,15.976l-57.228,13.854c-8.77,2.112 -17.728,-3.354 -19.861,-12.119Z" style="fill:#6b7280;fill-rule:nonzero;"/><ellipse cx="411.914" cy="382.979" rx="14.185" ry="14.184" style="fill:#fff;"/></g></svg>